<?xml version="1.0" encoding="utf-8"?>
<!-- Generator: Adobe Illustrator 19.0.0, SVG Export Plug-In . SVG Version: 6.00 Build 0)  -->
<svg version="1.1" xmlns="http://www.w3.org/2000/svg" xmlns:xlink="http://www.w3.org/1999/xlink" x="0px" y="0px"
	 viewBox="0 0 586.8 585.6" style="enable-background:new 0 0 586.8 585.6;" xml:space="preserve">
<style type="text/css">
	.st0{display:none;}
	.st1{display:inline;}
	.st2{fill:#2B8545;}
	.st3{fill:#215330;stroke:#FFFFFF;stroke-width:14;stroke-miterlimit:10;}
</style>
<g id="Layer_1" class="st0">
	
		<image style="display:inline;overflow:visible;" width="1034" height="944" xlink:href="../../../Desktop/gae/keywest-capetown/static/images/gf_logo.jpg"  transform="matrix(1 0 0 1 -223.5371 -23.4855)">
	</image>
</g>
<g id="squares" class="st0">
	<g class="st1">
		<rect x="5.9" y="7.4" class="st2" width="178" height="177.5"/>
		<rect x="205.4" y="7.4" class="st2" width="178" height="177.5"/>
		<rect x="400.8" y="6.6" class="st2" width="178" height="177.5"/>
		<rect x="5.9" y="204.5" class="st2" width="178" height="177.5"/>
		<rect x="205.4" y="204.5" class="st2" width="178" height="177.5"/>
		<rect x="400.8" y="204.5" class="st2" width="178" height="177.5"/>
		<rect x="5.9" y="401.5" class="st2" width="178" height="177.5"/>
		<rect x="203.3" y="401.5" class="st2" width="178" height="177.5"/>
		<rect x="402.9" y="401.5" class="st2" width="178" height="177.5"/>
	</g>
</g>
<g id="vector_logo">
	<path class="st3" d="M295.5,239.5v105L443,347c0,0-28.5,104.5-152,106c-134.5-7-155.5-127-157-157c7.5-147,132.5-162,155.5-162
		c83-2,112.5,49,112.5,49s130.5,0.5,156,0.5C531.5,114,452,17,295.5,7C26.5,24.5,3,268,7.5,291C5,359.5,47,459.5,92.5,496.5
		c44,47,130,82,203,82c117.5,3.5,184-69.5,208-90c88.5-84,80.3-234.3,70.5-248C548.5,238,295.5,239.5,295.5,239.5z"/>
</g>
</svg>
